<svg height="48" viewBox="0 0 48 48" width="48" xmlns="http://www.w3.org/2000/svg"><path d="m6 10c0-2.209 1.791-4 4-4h28c2.209 0 4 1.791 4 4v28c0 2.209-1.791 4-4 4h-28c-2.209 0-4-1.791-4-4z" fill="#03a9f4"/><g fill="#020f16"><path d="m20.016 19.174h-2.002v4.434h1.973c.547 0 .97-.179 1.27-.537s.449-.879.449-1.563c0-.71-.153-1.274-.459-1.694s-.717-.633-1.231-.64z"/><path d="m9 9v30h30v-30zm14.365 15.789c-.826.808-1.972 1.211-3.437 1.211h-1.914v5h-2.871v-14.219h4.844c1.406 0 2.528.437 3.364 1.309s1.255 2.005 1.255 3.398-.414 2.493-1.241 3.301zm9.317 5.547c-.709.573-1.641.859-2.793.859-.775 0-1.459-.151-2.051-.454s-1.057-.725-1.392-1.265-.503-1.123-.503-1.748h2.627c.014.481.125.843.337 1.084s.558.361 1.04.361c.742 0 1.113-.335 1.113-1.006 0-.234-.112-.451-.337-.649s-.723-.466-1.498-.805c-1.139-.462-1.922-.94-2.349-1.436s-.64-1.11-.64-1.846c0-.925.334-1.688 1.001-2.29s1.552-.903 2.651-.903c1.158 0 2.086.3 2.783.898s1.045 1.403 1.045 2.412h-2.764c0-.859-.357-1.289-1.074-1.289-.293 0-.533.091-.723.273s-.283.437-.283.762c0 .234.104.441.313.62s.699.435 1.475.767c1.127.417 1.922.881 2.388 1.392s.698 1.174.698 1.987c0 .945-.355 1.703-1.064 2.276z"/></g></svg>